<svg xmlns="http://www.w3.org/2000/svg" viewBox="0 0 502.1 99.06"><title>Recurso 2</title><g id="Capa_2" data-name="Capa 2"><g id="Capa_1-2" data-name="Capa 1"><rect x="501.15" y="27.41" width="0.95" height="20.42"/><rect x="501.15" y="47.83" width="0.95" height="24.66"/><path d="M158.11,52.06h8.84a.5.5,0,1,1,0,1h-8.84a.5.5,0,0,1,0-1Z"/><path d="M355.88,22.18h8.84a.5.5,0,1,1,0,1h-8.84a.5.5,0,1,1,0-1Z"/><path d="M375.7,22.18h8.84a.5.5,0,1,1,0,1H375.7a.5.5,0,0,1,0-1Z"/><path d="M390.7,22.18h8.84a.5.5,0,1,1,0,1H390.7a.5.5,0,1,1,0-1Z"/><path d="M390.7,17.2h8.84a.5.5,0,1,1,0,1H390.7a.5.5,0,1,1,0-1Z"/><path d="M405.71,22.18h8.84a.5.5,0,1,1,0,1h-8.84a.5.5,0,0,1,0-1Z"/><path d="M405.71,17.2h8.84a.5.5,0,1,1,0,1h-8.84a.5.5,0,0,1,0-1Z"/><path d="M420.71,22.18h8.84a.5.5,0,1,1,0,1h-8.84a.5.5,0,1,1,0-1Z"/><path d="M420.71,17.2h8.84a.5.5,0,1,1,0,1h-8.84a.5.5,0,1,1,0-1Z"/><path d="M420.71,12.21h8.84a.5.5,0,1,1,0,1h-8.84a.5.5,0,1,1,0-1Z"/><path d="M440.71,22.18h8.84a.5.5,0,0,1,0,1h-8.84a.5.5,0,1,1,0-1Z"/><path d="M440.71,17.2h8.84a.5.5,0,0,1,0,1h-8.84a.5.5,0,1,1,0-1Z"/><path d="M440.71,12.21h8.84a.5.5,0,0,1,0,1h-8.84a.5.5,0,1,1,0-1Z"/><path d="M455.71,22.18h8.84a.5.5,0,1,1,0,1h-8.84a.5.5,0,1,1,0-1Z"/><path d="M455.71,17.2h8.84a.5.5,0,1,1,0,1h-8.84a.5.5,0,1,1,0-1Z"/><path d="M455.71,12.21h8.84a.5.5,0,1,1,0,1h-8.84a.5.5,0,1,1,0-1Z"/><path d="M455.71,7.23h8.84a.5.5,0,0,1,0,1h-8.84a.5.5,0,0,1,0-1Z"/><path d="M470.72,22.18h8.84a.5.5,0,1,1,0,1h-8.84a.5.5,0,0,1,0-1Z"/><path d="M470.72,17.2h8.84a.5.5,0,1,1,0,1h-8.84a.5.5,0,0,1,0-1Z"/><path d="M470.72,12.21h8.84a.5.5,0,1,1,0,1h-8.84a.5.5,0,0,1,0-1Z"/><path d="M470.72,7.23h8.84a.5.5,0,0,1,0,1h-8.84a.5.5,0,0,1,0-1Z"/><path d="M485.72,22.18h8.84a.5.5,0,1,1,0,1h-8.84a.5.5,0,1,1,0-1Z"/><path d="M485.72,17.2h8.84a.5.5,0,1,1,0,1h-8.84a.5.5,0,1,1,0-1Z"/><path d="M485.72,12.21h8.84a.5.5,0,1,1,0,1h-8.84a.5.5,0,1,1,0-1Z"/><path d="M485.72,7.23h8.84a.5.5,0,1,1,0,1h-8.84a.5.5,0,0,1,0-1Z"/><path d="M485.72,2.25h8.84a.5.5,0,1,1,0,1h-8.84a.5.5,0,1,1,0-1Z"/><rect x="501.15" y="72.24" width="0.95" height="20.17"/><path d="M331.39,24.91c1.12,0,2.17.58,2.17,1.81a3.65,3.65,0,0,1-2.05,3,4.7,4.7,0,0,1-2.33.72c-1.12,0-2.17-.58-2.17-1.81a3.65,3.65,0,0,1,2.05-3A4.7,4.7,0,0,1,331.39,24.91Z"/><rect x="327.01" y="28.59" width="0.65" height="16.5" rx="0.2" ry="0.2"/><path d="M346.39,22.42c1.12,0,2.17.58,2.17,1.81a3.65,3.65,0,0,1-2.05,3,4.7,4.7,0,0,1-2.33.72c-1.12,0-2.17-.58-2.17-1.81a3.66,3.66,0,0,1,2.05-3A4.7,4.7,0,0,1,346.39,22.42Z"/><rect x="342.01" y="26.1" width="0.65" height="16.5" rx="0.2" ry="0.2"/><path d="M266.5,34.87c1.12,0,2.17.58,2.17,1.81a3.65,3.65,0,0,1-2.05,3,4.7,4.7,0,0,1-2.33.72c-1.12,0-2.17-.58-2.17-1.81a3.65,3.65,0,0,1,2.05-3A4.7,4.7,0,0,1,266.5,34.87Z"/><rect x="262.12" y="38.55" width="0.65" height="15.67" rx="0.2" ry="0.2"/><path d="M281.5,32.38c1.12,0,2.17.58,2.17,1.81a3.65,3.65,0,0,1-2.05,3,4.7,4.7,0,0,1-2.33.72c-1.12,0-2.17-.58-2.17-1.81a3.66,3.66,0,0,1,2.05-3A4.7,4.7,0,0,1,281.5,32.38Z"/><rect x="277.12" y="36.06" width="0.65" height="16.5" rx="0.2" ry="0.2"/><path d="M296.51,29.89c1.12,0,2.17.58,2.17,1.81a3.66,3.66,0,0,1-2.05,3,4.71,4.71,0,0,1-2.33.72c-1.12,0-2.17-.58-2.17-1.81a3.65,3.65,0,0,1,2.05-3A4.7,4.7,0,0,1,296.51,29.89Z"/><rect x="292.12" y="33.57" width="0.65" height="16.5" rx="0.2" ry="0.2"/><path d="M316.39,27.4c1.12,0,2.17.58,2.17,1.81a3.66,3.66,0,0,1-2.05,3,4.7,4.7,0,0,1-2.33.72c-1.12,0-2.17-.58-2.17-1.81a3.66,3.66,0,0,1,2.05-3A4.7,4.7,0,0,1,316.39,27.4Z"/><rect x="312" y="31.08" width="0.65" height="16.5" rx="0.2" ry="0.2"/><path d="M446.23,7.47c1.12,0,2.17.58,2.17,1.81a3.65,3.65,0,0,1-2.05,3A4.7,4.7,0,0,1,444,13c-1.12,0-2.17-.58-2.17-1.81a3.65,3.65,0,0,1,2.05-3A4.7,4.7,0,0,1,446.23,7.47Z"/><rect x="441.85" y="11.16" width="0.65" height="26.46" rx="0.2" ry="0.2"/><path d="M461.24,5c1.12,0,2.17.58,2.17,1.81a3.66,3.66,0,0,1-2.05,3,4.7,4.7,0,0,1-2.33.72c-1.12,0-2.17-.58-2.17-1.81a3.66,3.66,0,0,1,2.05-3A4.7,4.7,0,0,1,461.24,5Z"/><rect x="456.85" y="8.67" width="0.65" height="28.95" rx="0.2" ry="0.2"/><path d="M476.24,2.49c1.12,0,2.17.58,2.17,1.81a3.66,3.66,0,0,1-2.05,3A4.7,4.7,0,0,1,474,8c-1.12,0-2.17-.58-2.17-1.81a3.65,3.65,0,0,1,2.05-3A4.7,4.7,0,0,1,476.24,2.49Z"/><rect x="471.86" y="6.18" width="0.65" height="31.44" rx="0.2" ry="0.2"/><path d="M491.25,0c1.12,0,2.17.58,2.17,1.81a3.66,3.66,0,0,1-2.05,3A4.7,4.7,0,0,1,489,5.5c-1.12,0-2.17-.58-2.17-1.81a3.66,3.66,0,0,1,2.05-3A4.7,4.7,0,0,1,491.25,0Z"/><rect x="486.86" y="3.69" width="0.65" height="33.93" rx="0.2" ry="0.2"/><path d="M361.4,19.93c1.12,0,2.17.58,2.17,1.81a3.66,3.66,0,0,1-2.05,3,4.7,4.7,0,0,1-2.33.72c-1.12,0-2.17-.58-2.17-1.81a3.66,3.66,0,0,1,2.05-3A4.7,4.7,0,0,1,361.4,19.93Z"/><rect x="357.02" y="23.61" width="0.65" height="16.5" rx="0.2" ry="0.2"/><path d="M381.22,17.44c1.12,0,2.17.58,2.17,1.81a3.66,3.66,0,0,1-2.05,3,4.7,4.7,0,0,1-2.33.72c-1.12,0-2.17-.58-2.17-1.81a3.66,3.66,0,0,1,2.05-3A4.7,4.7,0,0,1,381.22,17.44Z"/><rect x="376.84" y="21.12" width="0.65" height="16.5" rx="0.2" ry="0.2"/><rect x="421.85" y="13.65" width="0.65" height="23.97" rx="0.2" ry="0.2"/><path d="M426.23,10c1.12,0,2.17.58,2.17,1.81a3.66,3.66,0,0,1-2.05,3,4.7,4.7,0,0,1-2.33.72c-1.12,0-2.17-.58-2.17-1.81a3.66,3.66,0,0,1,2.05-3A4.7,4.7,0,0,1,426.23,10Z"/><rect x="406.85" y="16.14" width="0.65" height="21.48" rx="0.2" ry="0.2"/><path d="M411.23,12.45c1.12,0,2.17.58,2.17,1.81a3.66,3.66,0,0,1-2.05,3A4.7,4.7,0,0,1,409,18c-1.12,0-2.17-.58-2.17-1.81a3.66,3.66,0,0,1,2.05-3A4.7,4.7,0,0,1,411.23,12.45Z"/><rect x="391.84" y="18.63" width="0.65" height="18.99" rx="0.2" ry="0.2"/><path d="M396.23,14.94c1.12,0,2.17.58,2.17,1.81a3.66,3.66,0,0,1-2.05,3,4.7,4.7,0,0,1-2.33.72c-1.12,0-2.17-.58-2.17-1.81a3.66,3.66,0,0,1,2.05-3A4.7,4.7,0,0,1,396.23,14.94Z"/><path d="M83.85,77.21C85,77.21,86,77.79,86,79A3.66,3.66,0,0,1,84,82a4.7,4.7,0,0,1-2.33.72c-1.12,0-2.17-.58-2.17-1.81a3.66,3.66,0,0,1,2.05-3A4.71,4.71,0,0,1,83.85,77.21Z"/><rect x="79.47" y="80.9" width="0.65" height="16.5" rx="0.2" ry="0.2"/><path d="M98.86,74.72c1.12,0,2.17.58,2.17,1.81a3.65,3.65,0,0,1-2.05,3,4.7,4.7,0,0,1-2.33.72c-1.12,0-2.17-.58-2.17-1.81a3.65,3.65,0,0,1,2.05-3A4.7,4.7,0,0,1,98.86,74.72Z"/><rect x="94.48" y="78.41" width="0.65" height="16.5" rx="0.2" ry="0.2"/><path d="M119.23,72.23c1.12,0,2.17.58,2.17,1.81a3.65,3.65,0,0,1-2.05,3,4.7,4.7,0,0,1-2.33.72c-1.12,0-2.17-.58-2.17-1.81a3.65,3.65,0,0,1,2.05-3A4.7,4.7,0,0,1,119.23,72.23Z"/><rect x="129.85" y="73.42" width="0.65" height="16.5" rx="0.2" ry="0.2"/><path d="M134.23,69.74c1.12,0,2.17.58,2.17,1.81a3.65,3.65,0,0,1-2.05,3,4.7,4.7,0,0,1-2.33.72c-1.12,0-2.17-.58-2.17-1.81a3.66,3.66,0,0,1,2.05-3A4.7,4.7,0,0,1,134.23,69.74Z"/><rect x="114.84" y="75.91" width="0.65" height="16.5" rx="0.2" ry="0.2"/><path d="M3.94,70c0,5.2-2,10.28-2,15.24a9.61,9.61,0,0,0,2.57,7.17l.06.24a.34.34,0,0,1-.3.36L4,92.85C1.37,90.16.48,86.64.48,82.87c0-5.32,2.15-10.52,2.15-15.54A9.86,9.86,0,0,0,.06,60.15L0,60l.06-.12a9.86,9.86,0,0,0,2.57-7.17c0-5-2.15-10.22-2.15-15.54,0-3.77.9-7.29,3.53-10l.24-.12a.33.33,0,0,1,.3.36l-.06.24a9.61,9.61,0,0,0-2.57,7.17c0,5,2,10,2,15.24C3.94,53.82,3,57.35.48,60,3,62.73,3.94,66.25,3.94,70Z"/><rect x="5.74" y="27.41" width="0.8" height="65.26" rx="0.25" ry="0.25"/><path d="M17.51,37.38l.26,0a5.12,5.12,0,0,1,5.1,5.2,5.19,5.19,0,0,1-2.13,4.18,4.52,4.52,0,0,1-1.45.72c.06.7.1,1.39.1,2.09,0,.38,0,.78,0,1.16-.14,2.39-1.79,4.54-4.14,4.54a3.9,3.9,0,0,1-3.89-3.93,2.17,2.17,0,0,1,2.23-2.05,2,2,0,0,1,1.89,2.05,1.91,1.91,0,0,1-1.89,1.89,1.63,1.63,0,0,1-.62-.12,2.8,2.8,0,0,0,2.33,1.29c1.91,0,3.13-1.83,3.25-3.81,0-.36,0-.74,0-1.1,0-.62,0-1.22-.08-1.83a10.3,10.3,0,0,1-1.77.16c-3.75,0-6.64-3.43-6.64-7.45,0-3.53,2.61-6.1,4.94-8.79a22.25,22.25,0,0,1-.9-3.79A27,27,0,0,1,14,24.69a7.18,7.18,0,0,1,3-5.82l.2-.06.2.06A12.92,12.92,0,0,1,20,26c0,2.85-1.71,5.08-3.59,7.25C16.82,34.61,17.18,36,17.51,37.38Zm1.69,9.27a3.54,3.54,0,0,0,2.25-3.27A3.81,3.81,0,0,0,18,39.59C18.49,41.9,18.93,44.19,19.21,46.65ZM11.5,42A5.26,5.26,0,0,0,16.76,47a11.08,11.08,0,0,0,1.63-.12,68.71,68.71,0,0,0-1.25-7.25A2.49,2.49,0,0,0,14.66,42a2.87,2.87,0,0,0,1.61,2.45.41.41,0,0,1,.14.3.46.46,0,0,1-.44.44l-.18,0a4.17,4.17,0,0,1-2.33-3.69,4,4,0,0,1,3.19-3.93c-.28-1.16-.58-2.33-.92-3.49C13.61,36.42,11.5,38.85,11.5,42Zm6.66-20.26a5.74,5.74,0,0,0-3.23,5.16,12.94,12.94,0,0,0,.72,3.87c1.59-1.93,2.91-3.95,2.91-6.46A6.89,6.89,0,0,0,18.15,21.78Z"/><path d="M38.1,37.08a1.5,1.5,0,0,1-1.49-1.49A1.47,1.47,0,0,1,38,34.05a1.44,1.44,0,0,1,.28,0,3,3,0,0,0-2.39-1.18c-2.11,0-2.25,1.45-2.25,3.71v2c0,2.25.14,3.73,2.25,3.73a3.52,3.52,0,0,0,3.15-3,.25.25,0,0,1,.24-.2.25.25,0,0,1,.26.24c0,1.87-2.09,3.47-3.65,3.47a5,5,0,0,1-3.67-1.39,5.43,5.43,0,0,1-1.31-3.85,5.43,5.43,0,0,1,1.31-3.85,5,5,0,0,1,3.67-1.37,3.56,3.56,0,0,1,3.49,3,1.22,1.22,0,0,1,0,.26A1.38,1.38,0,0,1,38.1,37.08Z"/><path d="M53.76,82.19c1.12,0,2.17.58,2.17,1.81a3.66,3.66,0,0,1-2.05,3,4.7,4.7,0,0,1-2.33.72c-1.12,0-2.17-.58-2.17-1.81a3.66,3.66,0,0,1,2.05-3A4.7,4.7,0,0,1,53.76,82.19Z"/><path d="M21.12,80a1,1,0,1,1,1,1A1,1,0,0,1,21.12,80Zm0-5a1,1,0,1,1,1,1A1,1,0,0,1,21.12,75Zm-6.48-2.75c3.43,0,5.84,1.75,5.84,5,0,5.24-5.24,8.25-10.28,10.38l-.18.08a.26.26,0,0,1-.26-.26l.08-.18c4-2.35,8.21-5.28,8.21-9.82,0-2.39-1.26-4.68-3.41-4.68a3.35,3.35,0,0,0-3.07,2.51,1.61,1.61,0,0,1,.68-.16,2,2,0,0,1,2,2,2.05,2.05,0,0,1-2,2.11A2.19,2.19,0,0,1,10,77.09,4.74,4.74,0,0,1,14.65,72.23Z"/><path d="M38.1,81.91a1.5,1.5,0,0,1-1.49-1.49A1.47,1.47,0,0,1,38,78.88a1.4,1.4,0,0,1,.28,0,3,3,0,0,0-2.39-1.18c-2.11,0-2.25,1.45-2.25,3.71v2c0,2.25.14,3.73,2.25,3.73a3.52,3.52,0,0,0,3.15-3,.25.25,0,0,1,.5,0c0,1.87-2.09,3.47-3.65,3.47a5,5,0,0,1-3.67-1.4,6.28,6.28,0,0,1,0-7.69,5,5,0,0,1,3.67-1.37,3.57,3.57,0,0,1,3.49,3,1.22,1.22,0,0,1,0,.26A1.38,1.38,0,0,1,38.1,81.91Z"/><rect x="64.47" y="83.39" width="0.65" height="15.67" rx="0.2" ry="0.2"/><path d="M68.85,79.7c1.12,0,2.17.58,2.17,1.81a3.66,3.66,0,0,1-2.05,3,4.7,4.7,0,0,1-2.33.72c-1.12,0-2.17-.58-2.17-1.81a3.66,3.66,0,0,1,2.05-3A4.7,4.7,0,0,1,68.85,79.7Z"/><rect x="55.28" y="67.51" width="0.65" height="16.5" rx="0.2" ry="0.2"/><path d="M200,44.83c1.12,0,2.17.58,2.17,1.81a3.66,3.66,0,0,1-2.05,3,4.7,4.7,0,0,1-2.33.72c-1.12,0-2.17-.58-2.17-1.81a3.66,3.66,0,0,1,2.05-3A4.7,4.7,0,0,1,200,44.83Z"/><rect x="201.49" y="30.15" width="0.65" height="16.5" rx="0.2" ry="0.2"/><path d="M215,42.34c1.12,0,2.17.58,2.17,1.81a3.66,3.66,0,0,1-2.05,3,4.7,4.7,0,0,1-2.33.72c-1.12,0-2.17-.58-2.17-1.81a3.66,3.66,0,0,1,2.05-3A4.7,4.7,0,0,1,215,42.34Z"/><rect x="216.5" y="27.66" width="0.65" height="16.5" rx="0.2" ry="0.2"/><path d="M230,39.85c1.12,0,2.17.58,2.17,1.81a3.66,3.66,0,0,1-2.05,3,4.7,4.7,0,0,1-2.33.72c-1.12,0-2.17-.58-2.17-1.81a3.66,3.66,0,0,1,2.05-3A4.7,4.7,0,0,1,230,39.85Z"/><rect x="231.5" y="25.17" width="0.65" height="16.5" rx="0.2" ry="0.2"/><path d="M251.41,37.36c1.12,0,2.17.58,2.17,1.81a3.66,3.66,0,0,1-2.05,3,4.7,4.7,0,0,1-2.33.72c-1.12,0-2.17-.58-2.17-1.81a3.66,3.66,0,0,1,2.05-3A4.7,4.7,0,0,1,251.41,37.36Z"/><rect x="252.93" y="22.68" width="0.65" height="16.5" rx="0.2" ry="0.2"/><path d="M149.24,67.25c1.12,0,2.17.58,2.17,1.81a3.66,3.66,0,0,1-2.05,3,4.7,4.7,0,0,1-2.33.72c-1.12,0-2.17-.58-2.17-1.81a3.66,3.66,0,0,1,2.05-3A4.7,4.7,0,0,1,149.24,67.25Z"/><rect x="144.85" y="70.93" width="0.65" height="16.5" rx="0.2" ry="0.2"/><path d="M163.63,49.81c1.12,0,2.17.58,2.17,1.81a3.65,3.65,0,0,1-2.05,3,4.7,4.7,0,0,1-2.33.72c-1.12,0-2.17-.58-2.17-1.81a3.65,3.65,0,0,1,2.05-3A4.7,4.7,0,0,1,163.63,49.81Z"/><rect x="165.16" y="35.13" width="0.65" height="16.5" rx="0.2" ry="0.2"/><path d="M185,47.32c1.12,0,2.17.58,2.17,1.81a3.66,3.66,0,0,1-2.05,3,4.7,4.7,0,0,1-2.33.72c-1.12,0-2.17-.58-2.17-1.81a3.66,3.66,0,0,1,2.05-3A4.7,4.7,0,0,1,185,47.32Z"/><rect x="186.49" y="32.64" width="0.65" height="16.5" rx="0.2" ry="0.2"/><rect x="6.14" y="92.11" width="495.49" height="0.55"/><rect x="6.14" y="87.16" width="495.49" height="0.55"/><rect x="6.14" y="77.19" width="495.49" height="0.55"/><rect x="6.14" y="82.18" width="495.49" height="0.55"/><rect x="6.14" y="72.21" width="495.49" height="0.55"/><rect x="8.01" y="47.31" width="493.61" height="0.55"/><rect x="6.14" y="42.35" width="495.49" height="0.55"/><rect x="6.14" y="32.39" width="495.49" height="0.55"/><rect x="6.14" y="37.37" width="495.49" height="0.55"/><rect x="6.14" y="27.41" width="495.49" height="0.55"/></g></g></svg>